<?xml version="1.0" standalone="no"?>
<!DOCTYPE svg PUBLIC "-//W3C//DTD SVG 20010904//EN"
 "http://www.w3.org/TR/2001/REC-SVG-20010904/DTD/svg10.dtd">
<svg version="1.0" xmlns="http://www.w3.org/2000/svg"
 width="192.000000pt" height="367.000000pt" viewBox="0 0 192.000000 367.000000"
 preserveAspectRatio="xMidYMid meet">
<metadata>
Created by potrace 1.13, written by Peter Selinger 2001-2015
</metadata>
<g transform="translate(0.000000,367.000000) scale(0.100000,-0.100000)"
fill="#000000" stroke="none">
<path d="M0 1835 l0 -1835 215 0 215 0 0 1835 0 1835 -215 0 -215 0 0 -1835z"/>
<path d="M860 3593 l0 -80 83 -6 c368 -29 684 -294 789 -662 30 -108 32 -323
4 -435 -96 -376 -411 -654 -782 -687 l-89 -8 -3 -77 -3 -78 49 0 c123 0 286
43 426 112 470 230 703 804 525 1291 -144 397 -503 672 -916 704 l-83 6 0 -80z"/>
<path d="M860 3278 c0 -84 3 -88 69 -88 82 0 210 -54 296 -123 139 -113 215
-269 216 -442 2 -312 -214 -550 -533 -590 l-48 -6 0 -75 0 -74 53 0 c75 0 199
33 284 76 362 182 509 640 320 1001 -115 220 -339 371 -579 390 l-78 6 0 -75z"/>
<path d="M875 2806 c-27 -13 -58 -32 -67 -42 -29 -33 -58 -107 -58 -149 0 -42
29 -116 58 -149 26 -29 113 -66 157 -66 44 0 131 37 157 66 29 33 58 107 58
149 0 44 -36 131 -66 157 -33 29 -107 58 -149 58 -22 0 -62 -11 -90 -24z"/>
</g>
</svg>
