<?xml version="1.0" encoding="utf-8"?>
<!-- Generator: Adobe Illustrator 15.0.0, SVG Export Plug-In . SVG Version: 6.00 Build 0)  -->
<!DOCTYPE svg PUBLIC "-//W3C//DTD SVG 1.1//EN" "http://www.w3.org/Graphics/SVG/1.1/DTD/svg11.dtd">
<svg version="1.1" id="Layer_1" xmlns="http://www.w3.org/2000/svg" xmlns:xlink="http://www.w3.org/1999/xlink" x="0px" y="0px"
	 width="372px" height="373.667px" viewBox="0 0 372 373.667" enable-background="new 0 0 372 373.667" xml:space="preserve">
<path fill="#07bafa" d="M360.753,187c0,95.634-77.858,173.16-173.899,173.16c-96.042,0-173.9-77.526-173.9-173.16
	c0-95.633,77.858-173.16,173.9-173.16C282.895,13.84,360.753,91.367,360.753,187"/>
<path fill="#FFFFFF" d="M171.846,354.311c-0.909-12.653-27.596-45.664-26.779-71.371c0.107-3.353,6.448-53.19,16.449-75.711
	c4.036-9.086,33.854-48.236,77.941-22.421c29.967,17.548,38.647-20.943,44.975-36.763c1.526-3.817,2.44-7.733,3.414-11.289
	c2.454-9.78,1.911-15.872-5.613-27.697c-2.226-3.5-26.111-46.697-27.759-48.895c-14.771-19.694-46.412-41.194-92.379-41.194
	c-10.376,0-24.839,4.104-36.926,5.981c7.94,2.261,16.089,7.159,16.089,7.159c7.618,2.505,4.388,3.163-3.44,0.949
	c-31.54-8.917-71.247-18.712-85.455,4.804C41.347,56.094,74.084,82.228,74.084,82.228c-4.729-2.379-11.226-10.203-16.725-16.445
	C28.469,96.734,10.554,141.238,10.554,187c0,86.505,63.287,161.568,146.166,174.498
	C164.512,365.384,172.058,357.512,171.846,354.311"/>
<path fill="#CDCDCD" d="M268.522,179.384c1.283-1.767,5.059-7.318,6.532-9.808c2.119-3.576,4.032-10.549,5.756-14.724
	c-5.868,4.341-20.221,9.127-25.554,10.036C278.596,161.449,270.733,175.944,268.522,179.384"/>
<path fill="#CDCDCD" d="M235.355,149.902c2.396,11.849,30.268,21.418,47.417,1.474c3.553-10.614,13.022-30.464,5.666-29.322
	c-1.488,28.093-25.287,35.024-35.396,27.356c-14.248-10.81-17.688-17.443-31.693-4.913
	C226.299,141.321,233.806,142.235,235.355,149.902"/>
<path fill="#CDCDCD" d="M118.164,303.455c35.859-58.92,11.924-14.539,41.643-98.028c11.351-31.888,51.527-37.518,73.337-32.161
	c-22.567-11.172-52.884-30.673-79.071-3.614c-25.185,26.024-33.666,112.104-71.539,155.718c2.073,1.565,4.188,3.072,6.332,4.544
	c6.886-4.071,12.164-7.943,18.467-13.307C106.782,316.909,118.708,303.218,118.164,303.455"/>
<path fill="#CDCDCD" d="M140.967,273.129c-2.497,4.904-5.087,9.642-7.725,14.098c-1.479,21.303,15.358,54.988-1.479,64.03
	c10.198,3.409,20.816,5.894,31.762,7.361c-1.242-0.167-2.491-0.31-3.724-0.502C181.544,356.272,128.932,306.334,140.967,273.129"/>
<path fill="#CDCDCD" d="M286.372,116.208c-0.295-0.253-0.567-0.513-0.854-0.767c-0.578-0.517-1.153-1.035-1.699-1.558
	c-0.315-0.302-0.618-0.609-0.922-0.914c-0.489-0.487-2.486-3.604-2.905-4.097c-0.277-0.331-14.785-25.502-15.031-25.982
	c-0.419-0.812-0.801-1.515-1.229-2.333c-0.069-0.133-1.099-2.262-1.168-2.396l-1.475-0.737c-5.731-5.412-14.461,2.559-15.17,7.371
	c32.552-0.246,24.268,44.829,24.268,44.829s10.409-17.369,18.95-11.134c0-0.003,0.003-0.018,0.003-0.018
	C288.176,117.728,287.259,116.972,286.372,116.208"/>
<path fill="#CDCDCD" d="M175.203,84.253C85.345,131.676,88.939,239.708,47.868,261.126
	c50.524-21.484,73.389-176.693,185.889-176.693c0.618,0,1.171,0.041,1.754,0.062C227.984,77.703,212.857,71.621,175.203,84.253"/>
<path fill="#CDCCCC" d="M65.267,41.579c-9.241,10.357,14.544,28.38,14.544,28.38c-7.239-10.853,10.801-25.574,31.42-25.371
	C87.859,40.272,71.927,34.115,65.267,41.579"/>
<path d="M151.403,261.681c1.722-17.459,8.865-36.224,13.78-50.229c11.945-34.034,44.558-39.323,70.727-24.133
	c24.721,14.351,39.46,5.015,45.533-10.003c3.599-8.898,21.292-60.262,21.292-60.262c-16.014-13.846-25.677-38.145-41.275-59.421
	c-13.036-17.78-42.584-39.45-75.858-43.813c-10.826,0.069-21.412,1.138-31.675,3.111c-0.068,0.014-0.137,0.024-0.206,0.038
	c-2.445,0.473-4.869,1.004-7.275,1.579c-0.168,0.04-0.336,0.075-0.504,0.117c-2.391,0.577-4.762,1.209-7.112,1.886
	c-0.155,0.044-0.312,0.086-0.467,0.131c-2.382,0.692-4.744,1.434-7.082,2.226c-0.093,0.031-0.187,0.063-0.28,0.095
	c-1.439,0.489-2.851,1.031-4.271,1.555c-22.706-6.305-65.299-14.275-77.733,10.075c-6.077,11.903-0.017,24.589,8.362,34.099
	c5.5,6.242,11.997,11.118,16.728,13.495c0,0-29.811-26.146-18.775-44.365c11.961-19.748,50.967-10.772,82.509-1.856
	c7.826,2.213,11.056-4.339,3.439-6.845c0,0-5.2-1.949-13.141-4.211c12.085-1.876,23.602-3.032,33.978-3.032
	c45.967,0,74.663,21.5,89.428,41.193c1.65,2.199,3.134,4.388,4.518,6.569c-2.099-0.3-9.184-3.689-19.425-3.689
	c-13.189,0-30.747,3.896-52.916,14.078c-0.607,0.278-1.226,0.575-1.838,0.863c-2.343,1.1-4.717,2.244-7.16,3.485
	c0.172-0.058,0.332-0.106,0.501-0.163c37.652-12.634,52.782-6.553,60.311,0.241c2.513,2.269,4.184,4.614,5.562,6.368
	c8.99,11.427,9.481,25.554-1.422,40.698c11.149-8.02,20.963-27.988,15.083-38.385c-3.457-6.115-4.382-10.6-4.153-13.447
	c0.434-5.437,9.403-3.35,11.603,0.672c1.567,2.865,14.87,25.157,17.099,28.655c7.524,11.827,8.067,17.918,5.613,27.698
	c-0.972,3.557-1.888,7.473-3.414,11.29c-6.327,15.819-41.191,11.331-43.585-0.519c-1.549-7.667-9.111-8.288-14.06-5.112
	c-2.116,1.36-3.764,3.404-4.24,5.908c-1.593,8.355,17.106,19.891,34.612,17.503c0.462-0.063,1.052-0.157,1.69-0.266
	c5.336-0.909,16.09-3.419,21.96-7.76c-7.619,19.125-7.128,33.253-38.401,18.162c-19.226-9.275-40.168-8.705-56.396-0.05
	c-0.493,0.244-0.977,0.509-1.462,0.774c-0.39,0.224-0.793,0.421-1.177,0.654c-1.403,0.827-2.762,1.758-4.083,2.773
	c-0.355,0.263-0.7,0.536-1.048,0.81c-0.257,0.211-0.509,0.434-0.762,0.652c-7.021,5.741-12.63,13.338-15.965,22.703
	c-29.72,83.49-28.058,77.984-51.235,112.327c0.545-0.239,25.02-25.866,33.633-43.479c-1.128,3.115-1.687,6.374-1.793,9.728
	c-0.817,25.739,25.099,56.968,25.933,69.571c0.212,3.203-1.212,5.19-5.087,5.593c0.068,0,0.139,0.018,0.209,0.023
	c1.095,0.071,2.198,0.364,3.299,0.512c1.333,0.18,2.667,0.394,4.011,0.541c1.435,0.155,2.881,0.294,4.327,0.419
	c1.285,0.109,2.571,0.22,3.863,0.301c1.124,0.072,2.248,0.145,3.377,0.193c2.524,0.109,5.055,0.196,7.606,0.196
	c3.173,0,6.323-0.098,9.454-0.266c1.012-0.055,2.009-0.157,3.015-0.229c2.113-0.15,4.224-0.31,6.316-0.536
	c1.174-0.127,2.335-0.293,3.503-0.445c1.914-0.245,3.824-0.501,5.718-0.811c1.197-0.193,2.382-0.418,3.573-0.636
	c1.85-0.343,3.697-0.703,5.526-1.104c1.168-0.255,2.33-0.526,3.489-0.804c1.85-0.445,3.688-0.919,5.516-1.422
	c1.093-0.304,2.182-0.607,3.269-0.928c1.908-0.57,3.799-1.177,5.678-1.809c0.968-0.322,1.937-0.638,2.894-0.979
	c2.072-0.737,4.119-1.523,6.157-2.337c0.731-0.293,1.474-0.566,2.202-0.869c2.562-1.063,5.097-2.188,7.597-3.37
	c0.18-0.085,0.364-0.159,0.544-0.245c5.581-2.663,11.001-5.62,16.233-8.845c0.133-0.082,0.263-0.172,0.396-0.253
	c2.414-1.497,4.793-3.052,7.129-4.665c0.381-0.263,0.751-0.541,1.13-0.804c2.084-1.463,4.137-2.964,6.151-4.515
	c0.448-0.345,0.885-0.694,1.327-1.043c1.939-1.521,3.85-3.082,5.72-4.686c0.432-0.368,0.862-0.741,1.287-1.114
	c1.885-1.645,3.731-3.328,5.541-5.053c0.361-0.344,0.729-0.687,1.087-1.035c1.896-1.838,3.752-3.72,5.564-5.642
	c0.234-0.249,0.474-0.493,0.708-0.743c2.026-2.177,4.007-4.402,5.923-6.684c0.009-0.02,0.023-0.043,0.023-0.043
	C232.447,392.7,145.68,319.668,151.403,261.681"/>
<path d="M186.709,2c-31.768,0-61.686,8.054-87.833,22.219c6.34,0.838,12.865,2.141,19.342,3.671
	c21.01-9.058,44.159-14.097,68.491-14.097c95.659,0,173.208,77.547,173.208,173.208c0,95.659-77.55,173.206-173.208,173.206
	c-95.66,0-173.207-77.547-173.207-173.206c0-45.836,17.835-87.483,46.905-118.463c-2.484-3.045-4.862-6.416-6.713-9.919
	C21.548,91.915,1.709,137.171,1.709,187c0,102.009,82.991,185,185,185c102.009,0,185-82.991,185-185
	C371.709,84.991,288.719,2,186.709,2"/>
<path fill="#FFFFFF" d="M74.085,82.227c0,0-0.255-0.204-0.688-0.565C73.386,81.79,73.565,81.965,74.085,82.227"/>
<path d="M64.66,111.167c2.796,3.292,9.118,2.515,14.122-1.736c5.003-4.25,6.795-10.364,3.999-13.656
	c-2.796-3.292-9.118-2.514-14.122,1.736C63.656,101.761,61.865,107.875,64.66,111.167"/>
<path d="M102.793,85.804c-4.166,2.938-5.97,7.551-4.029,10.304c1.942,2.753,6.893,2.602,11.059-0.336
	c4.166-2.938,5.968-7.551,4.028-10.304C111.91,82.715,106.959,82.866,102.793,85.804"/>
<path d="M43.945,194.201c-2.478,5.804-7.958,9.029-12.241,7.201c-4.285-1.828-5.748-8.016-3.271-13.821
	c2.478-5.804,7.958-9.03,12.241-7.202C44.959,182.209,46.423,188.396,43.945,194.201"/>
<path d="M57.214,151.32c-5.872,7.38-14.617,10.19-19.534,6.277c-4.916-3.912-4.142-13.065,1.729-20.444
	c5.871-7.378,14.616-10.189,19.533-6.277C63.858,134.789,63.084,143.941,57.214,151.32"/>
<path d="M44.172,216.152c-2.995,2.91-3.337,7.418-0.761,10.07c2.576,2.652,7.092,2.442,10.087-0.465
	c2.997-2.911,3.338-7.419,0.763-10.071C51.684,213.034,47.167,213.244,44.172,216.152"/>
<path d="M70.611,153.74c-3.419,4.067-4.013,9.194-1.325,11.454c2.686,2.259,7.636,0.793,11.054-3.273
	c3.419-4.067,4.012-9.195,1.326-11.454C78.979,148.208,74.03,149.673,70.611,153.74"/>
<path d="M91.397,126.116c-2.241,2.948-2.447,6.563-0.46,8.072c1.986,1.509,5.413,0.345,7.654-2.603
	c2.241-2.949,2.446-6.561,0.46-8.072C97.065,122.003,93.638,123.168,91.397,126.116"/>
<path d="M174.614,33.836c-5.488-0.041-9.958,2.866-9.986,6.49c-0.026,3.626,4.4,6.6,9.888,6.639
	c5.486,0.042,9.958-2.864,9.984-6.489C184.528,36.85,180.102,33.878,174.614,33.836"/>
<path d="M198.303,40.248c-3.234-0.58-6.165,0.681-6.55,2.816c-0.382,2.136,1.928,4.338,5.16,4.918
	c3.231,0.581,6.165-0.681,6.547-2.816C203.845,43.03,201.535,40.828,198.303,40.248"/>
<path d="M218.078,48.069c-2.362-0.423-4.498,0.498-4.778,2.056c-0.28,1.559,1.404,3.165,3.764,3.588
	c2.358,0.423,4.497-0.496,4.778-2.055C222.122,50.1,220.437,48.493,218.078,48.069"/>
</svg>
